<?xml version="1.0" encoding="UTF-8" standalone="no"?>
<svg
   version="1.1"
   width="148.8002"
   height="13.2301"
   id="svg4"
   viewBox="0 0 148.8002 13.2301"
   sodipodi:docname="9cb261f7cd45f33ca37c87fa6590aac1.cdr"
   xmlns:inkscape="http://www.inkscape.org/namespaces/inkscape"
   xmlns:sodipodi="http://sodipodi.sourceforge.net/DTD/sodipodi-0.dtd"
   xmlns="http://www.w3.org/2000/svg"
   xmlns:svg="http://www.w3.org/2000/svg">
  <defs
     id="defs8" />
  <sodipodi:namedview
     id="namedview6"
     pagecolor="#ffffff"
     bordercolor="#666666"
     borderopacity="1.0"
     inkscape:pageshadow="2"
     inkscape:pageopacity="0.0"
     inkscape:pagecheckerboard="0" />
  <path
     d="M 7.1818,13.0501 H 0 V 0.1981 H 7.1818 V 1.62 H 1.62 v 4.0141 h 5.2378 v 1.404 H 1.62 V 11.628 H 7.1818 Z M 16.23,1.44 C 15.546,1.44 14.9278,1.5599 14.3759,1.8 13.824,2.0279 13.356,2.37 12.9719,2.8261 12.5878,3.27 12.2938,3.816 12.09,4.464 c -0.2041,0.6361 -0.3061,1.3561 -0.3061,2.16 0,1.0559 0.1621,1.974 0.4861,2.7541 0.3359,0.7798 0.828,1.3799 1.476,1.8 0.6599,0.4198 1.482,0.6299 2.4659,0.6299 0.5641,0 1.0981,-0.0479 1.6021,-0.144 0.504,-0.0961 0.9958,-0.216 1.476,-0.36 v 1.404 c -0.4802,0.18 -0.9782,0.3121 -1.4941,0.396 -0.504,0.0839 -1.1101,0.1261 -1.8179,0.1261 -1.3082,0 -2.4001,-0.2701 -3.276,-0.8101 -0.8762,-0.54 -1.5361,-1.3079 -1.98,-2.304 C 10.29,9.1199 10.074,7.95 10.074,6.6061 c 0,-0.972 0.1318,-1.8601 0.396,-2.664 0.2758,-0.8042 0.6718,-1.5001 1.188,-2.088 0.5278,-0.5882 1.1758,-1.038 1.944,-1.3501 0.7679,-0.324 1.6498,-0.4859 2.6459,-0.4859 0.6599,0 1.296,0.0658 1.908,0.1979 0.612,0.1321 1.1579,0.318 1.6381,0.5581 l -0.648,1.368 C 18.75,1.9621 18.3058,1.8 17.814,1.656 17.3338,1.512 16.806,1.44 16.23,1.44 Z m 17.4473,5.1661 c 0,0.9958 -0.1259,1.9018 -0.3779,2.7179 -0.252,0.8039 -0.6301,1.5001 -1.1341,2.088 -0.4918,0.5879 -1.1098,1.038 -1.8539,1.3501 -0.7319,0.3118 -1.584,0.468 -2.556,0.468 -1.008,0 -1.8839,-0.1562 -2.628,-0.468 -0.7441,-0.324 -1.362,-0.7741 -1.8541,-1.3501 -0.4918,-0.5879 -0.8578,-1.2901 -1.0979,-2.1059 -0.2401,-0.8161 -0.36,-1.722 -0.36,-2.7181 0,-1.3201 0.216,-2.4721 0.648,-3.456 0.432,-0.9839 1.086,-1.7521 1.9619,-2.304 C 25.3134,0.2761 26.4294,0 27.7733,0 c 1.2841,0 2.3641,0.2761 3.24,0.828 0.8762,0.54 1.5361,1.3079 1.98,2.304 0.4561,0.9839 0.684,2.1421 0.684,3.4741 z m -10.152,0 c 0,1.08 0.1502,2.0098 0.4501,2.7899 0.2999,0.7801 0.762,1.3799 1.3859,1.8 0.6361,0.4201 1.434,0.6301 2.3941,0.6301 0.972,0 1.764,-0.21 2.376,-0.6301 0.6239,-0.4201 1.086,-1.0199 1.3859,-1.8 0.3002,-0.7801 0.4501,-1.7099 0.4501,-2.7899 0,-1.62 -0.3359,-2.8862 -1.008,-3.7981 -0.6721,-0.9241 -1.7339,-1.3859 -3.1861,-1.3859 -0.972,0 -1.7759,0.2098 -2.412,0.6299 -0.6239,0.4079 -1.086,1.002 -1.3859,1.7821 -0.2999,0.7679 -0.4501,1.692 -0.4501,2.772 z m 24.0165,-0.108 c 0,1.44 -0.2698,2.6459 -0.8098,3.6179 -0.5281,0.972 -1.2901,1.7039 -2.2862,2.196 -0.9958,0.4921 -2.2019,0.7381 -3.6178,0.7381 H 37.2458 V 0.1981 h 3.96 c 1.296,0 2.418,0.2398 3.3662,0.72 0.9479,0.4799 1.6798,1.188 2.196,2.124 0.5159,0.9238 0.7738,2.0758 0.7738,3.456 z M 45.832,6.552 C 45.832,5.4119 45.6398,4.4759 45.256,3.744 44.8838,3.0121 44.3319,2.4721 43.6,2.124 42.88,1.764 42.0038,1.584 40.972,1.584 h -2.1062 v 10.08 h 1.7462 c 1.7399,0 3.0418,-0.4261 3.9058,-1.2779 C 45.394,9.5221 45.832,8.244 45.832,6.552 Z m 8.9005,6.4981 h -4.644 v -0.936 l 1.512,-0.3421 V 1.4941 l -1.512,-0.36 v -0.936 h 4.644 v 0.936 l -1.512,0.36 V 11.772 l 1.512,0.3421 z M 65.224,9.612 c 0,0.7679 -0.1862,1.4221 -0.5581,1.9621 -0.3719,0.5278 -0.9059,0.936 -1.6019,1.224 -0.684,0.288 -1.4941,0.432 -2.4301,0.432 -0.4799,0 -0.9419,-0.0241 -1.3859,-0.072 C 58.816,13.1099 58.42,13.0439 58.06,12.96 57.7,12.8639 57.382,12.7499 57.1059,12.6181 v -1.548 c 0.432,0.1919 0.9661,0.366 1.6021,0.5219 0.648,0.1559 1.3139,0.2341 1.9979,0.2341 0.6361,0 1.1701,-0.0842 1.6021,-0.252 0.432,-0.1681 0.756,-0.4082 0.972,-0.72 0.216,-0.3121 0.324,-0.678 0.324,-1.0981 0,-0.4201 -0.0901,-0.7739 -0.2701,-1.0619 -0.18,-0.288 -0.4921,-0.5522 -0.936,-0.792 C 61.9659,7.6501 61.3599,7.3859 60.58,7.1101 60.0279,6.906 59.542,6.69 59.1219,6.4621 58.714,6.222 58.3719,5.9519 58.096,5.652 57.82,5.3521 57.6099,5.0099 57.4659,4.6261 57.3338,4.242 57.268,3.7981 57.268,3.2941 c 0,-0.684 0.1738,-1.2662 0.5219,-1.7461 0.3481,-0.4921 0.828,-0.87 1.44,-1.1339 0.6239,-0.2642 1.338,-0.396 2.1421,-0.396 0.7079,0 1.3559,0.0658 1.944,0.1979 0.588,0.1321 1.122,0.3061 1.6019,0.5221 L 64.4139,2.124 C 63.97,1.9321 63.4839,1.7699 62.956,1.6381 62.4399,1.506 61.8999,1.44 61.336,1.44 60.796,1.44 60.3459,1.5179 59.9859,1.6741 59.6259,1.83 59.356,2.052 59.176,2.34 c -0.18,0.2761 -0.2701,0.6001 -0.2701,0.972 0,0.432 0.0901,0.792 0.2701,1.08 0.18,0.288 0.474,0.5459 0.8819,0.7741 0.4079,0.2279 0.9601,0.474 1.656,0.7379 0.756,0.2761 1.3921,0.576 1.908,0.9 0.5281,0.3121 0.9241,0.6899 1.188,1.1341 C 65.086,8.382 65.224,8.9399 65.224,9.612 Z M 74.0409,1.44 c -0.684,0 -1.3019,0.1199 -1.8541,0.36 -0.5519,0.2279 -1.0199,0.57 -1.404,1.0261 C 70.399,3.27 70.1047,3.816 69.9009,4.464 c -0.2041,0.6361 -0.3061,1.3561 -0.3061,2.16 0,1.0559 0.1621,1.974 0.4861,2.7541 0.3359,0.7798 0.828,1.3799 1.476,1.8 0.6599,0.4198 1.482,0.6299 2.4659,0.6299 0.5641,0 1.0981,-0.0479 1.6021,-0.144 0.504,-0.0961 0.9961,-0.216 1.476,-0.36 v 1.404 c -0.4799,0.18 -0.9779,0.3121 -1.4938,0.396 -0.504,0.0839 -1.1104,0.1261 -1.8182,0.1261 -1.3082,0 -2.4001,-0.2701 -3.276,-0.8101 -0.8762,-0.54 -1.5361,-1.3079 -1.98,-2.304 -0.432,-0.9961 -0.648,-2.166 -0.648,-3.5099 0,-0.972 0.1318,-1.8601 0.396,-2.664 0.2758,-0.8042 0.6718,-1.5001 1.188,-2.088 0.5278,-0.5882 1.1758,-1.038 1.944,-1.3501 0.7679,-0.324 1.6501,-0.4859 2.6459,-0.4859 0.6602,0 1.2963,0.0658 1.9083,0.1979 0.612,0.1321 1.1579,0.318 1.6378,0.5581 l -0.648,1.368 C 76.5609,1.9621 76.117,1.8 75.6249,1.656 75.145,1.512 74.6169,1.44 74.0409,1.44 Z m 6.5849,11.6101 V 0.1981 h 1.62 v 11.412 h 5.616 v 1.44 z m 21.022,-6.444 c 0,0.9958 -0.1261,1.9018 -0.3781,2.7179 -0.252,0.8039 -0.6299,1.5001 -1.1339,2.088 -0.4921,0.5879 -1.11,1.038 -1.8541,1.3501 -0.7319,0.3118 -1.584,0.468 -2.556,0.468 -1.008,0 -1.8839,-0.1562 -2.628,-0.468 -0.7441,-0.324 -1.3621,-0.7741 -1.8539,-1.3501 -0.4921,-0.5879 -0.858,-1.2901 -1.0981,-2.1059 -0.2401,-0.8161 -0.36,-1.722 -0.36,-2.7181 0,-1.3201 0.216,-2.4721 0.648,-3.456 0.432,-0.9839 1.0859,-1.7521 1.9621,-2.304 C 93.2836,0.2761 94.3996,0 95.7438,0 c 1.2838,0 2.3638,0.2761 3.24,0.828 0.8759,0.54 1.5358,1.3079 1.98,2.304 0.4558,0.9839 0.684,2.1421 0.684,3.4741 z m -10.152,0 c 0,1.08 0.15,2.0098 0.4499,2.7899 0.2999,0.7801 0.7619,1.3799 1.3861,1.8 0.6358,0.4201 1.4338,0.6301 2.3939,0.6301 0.972,0 1.764,-0.21 2.376,-0.6301 0.6239,-0.4201 1.0859,-1.0199 1.3861,-1.8 0.2999,-0.7801 0.4499,-1.7099 0.4499,-2.7899 0,-1.62 -0.3359,-2.8862 -1.008,-3.7981 -0.6721,-0.9241 -1.734,-1.3859 -3.1859,-1.3859 -0.972,0 -1.7762,0.2098 -2.412,0.6299 -0.6242,0.4079 -1.0862,1.002 -1.3861,1.7821 -0.2999,0.7679 -0.4499,1.692 -0.4499,2.772 z m 21.0104,3.0059 c 0,0.7679 -0.1859,1.4221 -0.5581,1.9621 -0.3719,0.5278 -0.906,0.936 -1.6019,1.224 -0.684,0.288 -1.4941,0.432 -2.4301,0.432 -0.4799,0 -0.942,-0.0241 -1.3859,-0.072 -0.432,-0.0482 -0.828,-0.1142 -1.188,-0.1981 -0.36,-0.0961 -0.678,-0.2101 -0.9541,-0.3419 v -1.548 c 0.432,0.1919 0.966,0.366 1.6021,0.5219 0.648,0.1559 1.3139,0.2341 1.9979,0.2341 0.6361,0 1.1701,-0.0842 1.6021,-0.252 0.432,-0.1681 0.756,-0.4082 0.972,-0.72 0.216,-0.3121 0.324,-0.678 0.324,-1.0981 0,-0.4201 -0.0901,-0.7739 -0.2701,-1.0619 -0.18,-0.288 -0.4918,-0.5522 -0.936,-0.792 -0.432,-0.252 -1.0378,-0.5162 -1.8179,-0.792 -0.5519,-0.2041 -1.038,-0.4201 -1.4581,-0.648 -0.4079,-0.2401 -0.7498,-0.5102 -1.0259,-0.8101 -0.2761,-0.2999 -0.4861,-0.6421 -0.6301,-1.0259 -0.1318,-0.3841 -0.1979,-0.828 -0.1979,-1.332 0,-0.684 0.1741,-1.2662 0.5219,-1.7461 0.3481,-0.4921 0.828,-0.87 1.44,-1.1339 0.6242,-0.2642 1.3382,-0.396 2.1421,-0.396 0.7081,0 1.3561,0.0658 1.944,0.1979 0.5879,0.1321 1.122,0.3061 1.6019,0.5221 l -0.504,1.3859 C 111.2522,1.9321 110.7663,1.7699 110.2382,1.6381 109.7223,1.506 109.1823,1.44 108.6182,1.44 c -0.54,0 -0.9901,0.0779 -1.3501,0.2341 -0.36,0.1559 -0.6299,0.3779 -0.8099,0.6659 -0.18,0.2761 -0.2701,0.6001 -0.2701,0.972 0,0.432 0.0901,0.792 0.2701,1.08 0.18,0.288 0.474,0.5459 0.8819,0.7741 0.4082,0.2279 0.9601,0.474 1.656,0.7379 0.756,0.2761 1.3921,0.576 1.908,0.9 0.5281,0.3121 0.9241,0.6899 1.188,1.1341 0.2761,0.4439 0.4141,1.0018 0.4141,1.6739 z m 13.083,-1.0979 c 0,0.8878 -0.18,1.692 -0.54,2.412 -0.36,0.7078 -0.9119,1.2719 -1.656,1.692 -0.7319,0.4079 -1.6679,0.612 -2.808,0.612 -1.5959,0 -2.8139,-0.432 -3.6541,-1.296 -0.828,-0.8762 -1.2419,-2.0282 -1.2419,-3.456 v -8.28 h 1.62 V 8.532 c 0,1.044 0.2761,1.8541 0.828,2.4301 0.5641,0.576 1.41,0.864 2.5379,0.864 0.7801,0 1.4102,-0.138 1.8901,-0.4141 0.4921,-0.288 0.8521,-0.6781 1.08,-1.1699 0.2279,-0.504 0.3419,-1.08 0.3419,-1.728 v -8.316 h 1.6021 z m 7.6581,-8.316 c 1.0681,0 1.944,0.1378 2.628,0.4139 0.6962,0.2639 1.2121,0.6661 1.548,1.2061 0.3362,0.54 0.504,1.2178 0.504,2.0339 0,0.684 -0.1258,1.254 -0.3778,1.7101 -0.252,0.4558 -0.576,0.8218 -0.972,1.0979 -0.3841,0.2639 -0.792,0.4739 -1.224,0.6301 l 3.528,5.76 h -1.8902 L 133.8775,7.74 h -2.556 v 5.3101 h -1.62 V 0.1981 Z m -0.0898,1.404 h -1.836 V 6.372 h 1.9258 c 0.6962,0 1.2663,-0.0899 1.7102,-0.2699 0.4439,-0.1922 0.7679,-0.468 0.972,-0.828 0.216,-0.36 0.324,-0.8101 0.324,-1.3501 0,-0.5641 -0.114,-1.014 -0.3422,-1.3499 -0.216,-0.3362 -0.5519,-0.5822 -1.008,-0.7381 -0.4558,-0.1559 -1.0377,-0.2339 -1.7458,-0.2339 z m 15.6427,11.448 h -7.1819 V 0.1981 h 7.1819 V 1.62 h -5.5619 v 4.0141 h 5.2379 v 1.404 h -5.2379 v 4.5899 h 5.5619 z"
     style="fill:#0c4a34;fill-rule:evenodd"
     id="path2" />
</svg>
