<?xml version="1.0" encoding="UTF-8"?>
<!DOCTYPE svg PUBLIC "-//W3C//DTD SVG 1.1//EN" "http://www.w3.org/Graphics/SVG/1.1/DTD/svg11.dtd">
<!-- Creator: CorelDRAW 2017 -->
<svg xmlns="http://www.w3.org/2000/svg" xml:space="preserve" width="210mm" height="297mm" version="1.1" style="shape-rendering:geometricPrecision; text-rendering:geometricPrecision; image-rendering:optimizeQuality; fill-rule:evenodd; clip-rule:evenodd"
viewBox="0 0 21000 29700"
 xmlns:xlink="http://www.w3.org/1999/xlink">
 <defs>
  <style type="text/css">
   <![CDATA[
    .fil0 {fill:#0C4A34}
   ]]>
  </style>
 </defs>
 <g id="Слой_x0020_1">
  <metadata id="CorelCorpID_0Corel-Layer"/>
  <path class="fil0" d="M8127.31 15074.9l-253.36 0 0 -453.39 253.36 0 0 50.16 -196.21 0 0 141.61 184.78 0 0 49.53 -184.78 0 0 161.92 196.21 0 0 50.17zm319.2 -409.58c-24.13,0 -45.94,4.23 -65.41,12.7 -19.47,8.04 -35.98,20.11 -49.53,36.2 -13.55,15.66 -23.92,34.92 -31.11,57.78 -7.2,22.44 -10.8,47.84 -10.8,76.2 0,37.25 5.72,69.64 17.15,97.16 11.85,27.51 29.21,48.68 52.07,63.5 23.28,14.81 52.28,22.22 86.99,22.22 19.9,0 38.74,-1.69 56.52,-5.08 17.78,-3.39 35.13,-7.62 52.07,-12.7l0 49.53c-16.94,6.35 -34.51,11.01 -52.71,13.97 -17.78,2.96 -39.16,4.45 -64.13,4.45 -46.15,0 -84.67,-9.53 -115.57,-28.58 -30.91,-19.05 -54.19,-46.14 -69.85,-81.28 -15.24,-35.14 -22.86,-76.41 -22.86,-123.82 0,-34.29 4.65,-65.62 13.97,-93.98 9.73,-28.37 23.7,-52.92 41.91,-73.66 18.62,-20.75 41.48,-36.62 68.58,-47.63 27.09,-11.43 58.2,-17.14 93.34,-17.14 23.28,0 45.72,2.32 67.31,6.98 21.59,4.66 40.85,11.22 57.79,19.69l-22.86 48.26c-13.97,-6.35 -29.64,-12.07 -46.99,-17.15 -16.94,-5.08 -35.56,-7.62 -55.88,-7.62zm615.5 182.25c0,35.13 -4.44,67.09 -13.33,95.88 -8.89,28.36 -22.23,52.92 -40.01,73.66 -17.35,20.74 -39.15,36.62 -65.4,47.63 -25.82,11 -55.88,16.51 -90.17,16.51 -35.56,0 -66.46,-5.51 -92.71,-16.51 -26.25,-11.43 -48.05,-27.31 -65.41,-47.63 -17.35,-20.74 -30.26,-45.51 -38.73,-74.29 -8.47,-28.79 -12.7,-60.75 -12.7,-95.89 0,-46.57 7.62,-87.21 22.86,-121.92 15.24,-34.71 38.31,-61.81 69.21,-81.28 31.33,-19.47 70.7,-29.21 118.11,-29.21 45.3,0 83.4,9.74 114.3,29.21 30.91,19.05 54.19,46.14 69.85,81.28 16.09,34.71 24.13,75.57 24.13,122.56zm-358.14 0c0,38.1 5.3,70.9 15.88,98.42 10.58,27.52 26.88,48.68 48.89,63.5 22.44,14.82 50.59,22.23 84.46,22.23 34.29,0 62.23,-7.41 83.82,-22.23 22.01,-14.82 38.31,-35.98 48.89,-63.5 10.59,-27.52 15.88,-60.32 15.88,-98.42 0,-57.15 -11.85,-101.82 -35.56,-133.99 -23.71,-32.6 -61.17,-48.89 -112.4,-48.89 -34.29,0 -62.65,7.4 -85.09,22.22 -22.01,14.39 -38.31,35.35 -48.89,62.87 -10.58,27.09 -15.88,59.69 -15.88,97.79zm847.25 -3.81c0,50.8 -9.52,93.34 -28.57,127.63 -18.63,34.29 -45.51,60.11 -80.65,77.47 -35.13,17.36 -77.68,26.04 -127.63,26.04l-126.37 0 0 -453.39 139.7 0c45.72,0 85.3,8.46 118.75,25.4 33.44,16.93 59.26,41.91 77.47,74.93 18.2,32.59 27.3,73.23 27.3,121.92zm-60.32 1.9c0,-40.22 -6.78,-73.24 -20.32,-99.06 -13.13,-25.82 -32.6,-44.87 -58.42,-57.15 -25.4,-12.7 -56.31,-19.05 -92.71,-19.05l-74.3 0 0 355.6 61.6 0c61.38,0 107.31,-15.03 137.79,-45.08 30.91,-30.48 46.36,-75.57 46.36,-135.26zm313.99 229.24l-163.83 0 0 -33.02 53.34 -12.07 0 -362.58 -53.34 -12.7 0 -33.02 163.83 0 0 33.02 -53.34 12.7 0 362.58 53.34 12.07 0 33.02zm370.12 -121.29c0,27.09 -6.57,50.17 -19.69,69.22 -13.12,18.62 -31.96,33.02 -56.51,43.18 -24.13,10.16 -52.71,15.24 -85.73,15.24 -16.93,0 -33.23,-0.85 -48.89,-2.54 -15.24,-1.7 -29.21,-4.03 -41.91,-6.99 -12.7,-3.39 -23.92,-7.41 -33.66,-12.06l0 -54.61c15.24,6.77 34.08,12.91 56.52,18.41 22.86,5.5 46.35,8.26 70.48,8.26 22.44,0 41.28,-2.97 56.52,-8.89 15.24,-5.93 26.67,-14.4 34.29,-25.4 7.62,-11.01 11.43,-23.92 11.43,-38.74 0,-14.82 -3.18,-27.3 -9.53,-37.46 -6.35,-10.16 -17.36,-19.48 -33.02,-27.94 -15.24,-8.89 -36.62,-18.21 -64.13,-27.94 -19.48,-7.2 -36.62,-14.82 -51.44,-22.86 -14.39,-8.47 -26.46,-18 -36.19,-28.58 -9.74,-10.58 -17.15,-22.65 -22.23,-36.19 -4.66,-13.55 -6.98,-29.21 -6.98,-46.99 0,-24.13 6.13,-44.67 18.41,-61.6 12.28,-17.36 29.21,-30.69 50.8,-40 22.01,-9.32 47.2,-13.97 75.57,-13.97 24.97,0 47.83,2.32 68.58,6.98 20.74,4.66 39.58,10.8 56.51,18.42l-17.78 48.89c-15.66,-6.77 -32.81,-12.49 -51.43,-17.14 -18.21,-4.66 -37.26,-6.99 -57.15,-6.99 -19.05,0 -34.93,2.75 -47.63,8.26 -12.7,5.5 -22.22,13.33 -28.57,23.49 -6.35,9.74 -9.53,21.17 -9.53,34.29 0,15.24 3.18,27.94 9.53,38.1 6.35,10.16 16.72,19.26 31.11,27.31 14.39,8.04 33.87,16.72 58.42,26.03 26.67,9.74 49.11,20.32 67.31,31.75 18.63,11.01 32.6,24.34 41.91,40.01 9.74,15.66 14.61,35.34 14.61,59.05zm311.04 -288.29c-24.13,0 -45.93,4.23 -65.41,12.7 -19.47,8.04 -35.98,20.11 -49.53,36.2 -13.54,15.66 -23.92,34.92 -31.11,57.78 -7.2,22.44 -10.8,47.84 -10.8,76.2 0,37.25 5.72,69.64 17.15,97.16 11.85,27.51 29.21,48.68 52.07,63.5 23.28,14.81 52.28,22.22 86.99,22.22 19.9,0 38.74,-1.69 56.52,-5.08 17.78,-3.39 35.14,-7.62 52.07,-12.7l0 49.53c-16.93,6.35 -34.5,11.01 -52.7,13.97 -17.78,2.96 -39.17,4.45 -64.14,4.45 -46.15,0 -84.67,-9.53 -115.57,-28.58 -30.91,-19.05 -54.19,-46.14 -69.85,-81.28 -15.24,-35.14 -22.86,-76.41 -22.86,-123.82 0,-34.29 4.65,-65.62 13.97,-93.98 9.73,-28.37 23.7,-52.92 41.91,-73.66 18.62,-20.75 41.48,-36.62 68.58,-47.63 27.09,-11.43 58.21,-17.14 93.34,-17.14 23.29,0 45.73,2.32 67.32,6.98 21.59,4.66 40.85,11.22 57.78,19.69l-22.86 48.26c-13.97,-6.35 -29.63,-12.07 -46.99,-17.15 -16.93,-5.08 -35.56,-7.62 -55.88,-7.62zm232.3 409.58l0 -453.39 57.15 0 0 402.59 198.12 0 0 50.8 -255.27 0zm741.61 -227.33c0,35.13 -4.45,67.09 -13.34,95.88 -8.89,28.36 -22.22,52.92 -40,73.66 -17.36,20.74 -39.16,36.62 -65.41,47.63 -25.82,11 -55.88,16.51 -90.17,16.51 -35.56,0 -66.46,-5.51 -92.71,-16.51 -26.25,-11.43 -48.05,-27.31 -65.4,-47.63 -17.36,-20.74 -30.27,-45.51 -38.74,-74.29 -8.47,-28.79 -12.7,-60.75 -12.7,-95.89 0,-46.57 7.62,-87.21 22.86,-121.92 15.24,-34.71 38.31,-61.81 69.22,-81.28 31.32,-19.47 70.69,-29.21 118.11,-29.21 45.29,0 83.39,9.74 114.3,29.21 30.9,19.05 54.18,46.14 69.85,81.28 16.08,34.71 24.13,75.57 24.13,122.56zm-358.14 0c0,38.1 5.29,70.9 15.87,98.42 10.58,27.52 26.88,48.68 48.9,63.5 22.43,14.82 50.58,22.23 84.45,22.23 34.29,0 62.23,-7.41 83.82,-22.23 22.01,-14.82 38.31,-35.98 48.9,-63.5 10.58,-27.52 15.87,-60.32 15.87,-98.42 0,-57.15 -11.85,-101.82 -35.56,-133.99 -23.71,-32.6 -61.17,-48.89 -112.39,-48.89 -34.29,0 -62.66,7.4 -85.09,22.22 -22.02,14.39 -38.32,35.35 -48.9,62.87 -10.58,27.09 -15.87,59.69 -15.87,97.79zm741.2 106.04c0,27.09 -6.56,50.17 -19.69,69.22 -13.12,18.62 -31.96,33.02 -56.51,43.18 -24.13,10.16 -52.71,15.24 -85.73,15.24 -16.93,0 -33.23,-0.85 -48.89,-2.54 -15.24,-1.7 -29.21,-4.03 -41.91,-6.99 -12.7,-3.39 -23.92,-7.41 -33.66,-12.06l0 -54.61c15.24,6.77 34.08,12.91 56.52,18.41 22.86,5.5 46.35,8.26 70.48,8.26 22.44,0 41.28,-2.97 56.52,-8.89 15.24,-5.93 26.67,-14.4 34.29,-25.4 7.62,-11.01 11.43,-23.92 11.43,-38.74 0,-14.82 -3.18,-27.3 -9.53,-37.46 -6.35,-10.16 -17.35,-19.48 -33.02,-27.94 -15.24,-8.89 -36.61,-18.21 -64.13,-27.94 -19.47,-7.2 -36.62,-14.82 -51.44,-22.86 -14.39,-8.47 -26.45,-18 -36.19,-28.58 -9.74,-10.58 -17.15,-22.65 -22.23,-36.19 -4.65,-13.55 -6.98,-29.21 -6.98,-46.99 0,-24.13 6.14,-44.67 18.41,-61.6 12.28,-17.36 29.21,-30.69 50.8,-40 22.02,-9.32 47.21,-13.97 75.57,-13.97 24.98,0 47.84,2.32 68.58,6.98 20.74,4.66 39.58,10.8 56.51,18.42l-17.78 48.89c-15.66,-6.77 -32.8,-12.49 -51.43,-17.14 -18.2,-4.66 -37.25,-6.99 -57.15,-6.99 -19.05,0 -34.93,2.75 -47.63,8.26 -12.7,5.5 -22.22,13.33 -28.57,23.49 -6.35,9.74 -9.53,21.17 -9.53,34.29 0,15.24 3.18,27.94 9.53,38.1 6.35,10.16 16.72,19.26 31.11,27.31 14.4,8.04 33.87,16.72 58.42,26.03 26.67,9.74 49.11,20.32 67.31,31.75 18.63,11.01 32.6,24.34 41.91,40.01 9.74,15.66 14.61,35.34 14.61,59.05zm461.54 -38.73c0,31.32 -6.35,59.69 -19.05,85.09 -12.7,24.97 -32.17,44.87 -58.42,59.69 -25.82,14.39 -58.84,21.59 -99.06,21.59 -56.3,0 -99.27,-15.24 -128.91,-45.72 -29.21,-30.91 -43.81,-71.55 -43.81,-121.92l0 -292.1 57.15 0 0 294c0,36.83 9.74,65.41 29.21,85.73 19.9,20.32 49.74,30.48 89.53,30.48 27.52,0 49.75,-4.87 66.68,-14.61 17.36,-10.16 30.06,-23.92 38.1,-41.27 8.04,-17.78 12.06,-38.1 12.06,-60.96l0 -293.37 56.52 0 0 293.37zm270.16 -293.37c37.68,0 68.58,4.86 92.71,14.6 24.56,9.31 42.76,23.5 54.61,42.55 11.86,19.05 17.78,42.96 17.78,71.75 0,24.13 -4.44,44.24 -13.33,60.33 -8.89,16.08 -20.32,28.99 -34.29,38.73 -13.55,9.31 -27.94,16.72 -43.18,22.23l124.46 203.2 -66.68 0 -109.85 -187.33 -90.17 0 0 187.33 -57.15 0 0 -453.39 125.09 0zm-3.17 49.53l-64.77 0 0 168.27 67.94 0c24.56,0 44.67,-3.17 60.33,-9.52 15.66,-6.78 27.09,-16.51 34.29,-29.21 7.62,-12.7 11.43,-28.58 11.43,-47.63 0,-19.9 -4.02,-35.77 -12.07,-47.62 -7.62,-11.86 -19.47,-20.54 -35.56,-26.04 -16.08,-5.5 -36.61,-8.25 -61.59,-8.25zm551.84 403.86l-253.36 0 0 -453.39 253.36 0 0 50.16 -196.21 0 0 141.61 184.78 0 0 49.53 -184.78 0 0 161.92 196.21 0 0 50.17z"/>
  <path class="fil0" d="M7264.25 14636.58c0,60.04 -43.51,109.92 -100.71,119.82l0 229.98 87.34 -74.87c-10.82,-18.18 -17.03,-39.42 -17.03,-62.11 0,-67.17 54.45,-121.62 121.61,-121.62 67.17,0 121.62,54.45 121.62,121.62 0,67.16 -54.45,121.62 -121.62,121.62 -29.38,0 -56.33,-10.43 -77.36,-27.78l-114.56 98.2 0 142.41 -41.81 0 0 -142.41 -114.56 -98.2c-21.03,17.35 -47.98,27.78 -77.36,27.78 -67.17,0 -121.62,-54.46 -121.62,-121.62 0,-67.17 54.45,-121.62 121.62,-121.62 67.16,0 121.61,54.45 121.61,121.62 0,22.69 -6.21,43.93 -17.03,62.12l87.34 74.86 0 -229.98c-57.2,-9.91 -100.71,-59.79 -100.71,-119.82 0,-67.17 54.45,-121.62 121.61,-121.62 67.17,0 121.62,54.45 121.62,121.62z"/>
 </g>
</svg>
