<?xml version="1.0" encoding="UTF-8"?>
<!DOCTYPE svg PUBLIC "-//W3C//DTD SVG 1.1//EN" "http://www.w3.org/Graphics/SVG/1.1/DTD/svg11.dtd">
<!-- Creator: CorelDRAW X8 -->
<svg xmlns="http://www.w3.org/2000/svg" xml:space="preserve" width="210mm" height="297mm" version="1.1" style="shape-rendering:geometricPrecision; text-rendering:geometricPrecision; image-rendering:optimizeQuality; fill-rule:evenodd; clip-rule:evenodd"
viewBox="0 0 21000 29700"
 xmlns:xlink="http://www.w3.org/1999/xlink">
 <defs>
  <style type="text/css">
   <![CDATA[
    .fil0 {fill:#0C4A34}
   ]]>
  </style>
 </defs>
 <g id="Слой_x0020_1">
  <metadata id="CorelCorpID_0Corel-Layer"/>
  <path class="fil0" d="M10808 14311c0,152 -110,278 -255,304l0 582 221 -190c-27,-46 -43,-100 -43,-157 0,-170 138,-308 308,-308 170,0 308,138 308,308 0,170 -138,308 -308,308 -75,0 -143,-27 -196,-70l-290 248 0 361 -106 0 0 -361 -290 -248c-53,43 -121,70 -196,70 -170,0 -308,-138 -308,-308 0,-170 138,-308 308,-308 170,0 308,138 308,308 0,57 -16,111 -43,157l221 190 0 -582c-145,-26 -255,-152 -255,-304 0,-170 138,-308 308,-308 170,0 308,138 308,308z"/>
 </g>
</svg>
