<?xml version="1.0" encoding="UTF-8" standalone="no"?>
<svg
   version="1.1"
   width="48.000198"
   height="48.000198"
   id="svg4"
   viewBox="0 0 48.000198 48.000198"
   sodipodi:docname="b4218386e2d1cdfce5bc8fa6d9740b88.cdr"
   xmlns:inkscape="http://www.inkscape.org/namespaces/inkscape"
   xmlns:sodipodi="http://sodipodi.sourceforge.net/DTD/sodipodi-0.dtd"
   xmlns="http://www.w3.org/2000/svg"
   xmlns:svg="http://www.w3.org/2000/svg">
  <defs
     id="defs8" />
  <sodipodi:namedview
     id="namedview6"
     pagecolor="#ffffff"
     bordercolor="#666666"
     borderopacity="1.0"
     inkscape:pageshadow="2"
     inkscape:pageopacity="0.0"
     inkscape:pagecheckerboard="0" />
  <path
     d="m 32.7274,8.7273 c 0,4.3087 -3.1221,7.888 -7.2275,8.5989 v 16.5036 l 6.2683,-5.3728 c -0.7767,-1.3045 -1.2226,-2.8287 -1.2226,-4.4572 0,-4.82 3.9073,-8.7273 8.7273,-8.7273 4.8197,0 8.7273,3.9073 8.7273,8.7273 0,4.8197 -3.9076,8.7273 -8.7273,8.7273 -2.1087,0 -4.0428,-0.7481 -5.5514,-1.993 L 25.4999,37.781 V 48.0002 H 22.5 V 37.781 L 14.2787,30.7341 C 12.7701,31.979 10.836,32.7271 8.7273,32.7271 3.9076,32.7271 0,28.8195 0,23.9998 c 0,-4.82 3.9076,-8.7273 8.7273,-8.7273 4.82,0 8.7273,3.9073 8.7273,8.7273 0,1.6285 -0.4459,3.1527 -1.2226,4.4575 L 22.5,33.8298 V 17.3262 C 18.3949,16.615 15.2731,13.0357 15.2731,8.7273 15.2731,3.9073 19.1803,0 24.0001,0 c 4.82,0 8.7273,3.9073 8.7273,8.7273 z"
     style="fill:#0c4a34;fill-rule:evenodd"
     id="path2" />
</svg>
