<svg width="199" height="19" viewBox="0 0 199 19" fill="none" xmlns="http://www.w3.org/2000/svg">
<path d="M9.82369 18H0.247685V0.863999H9.82369V2.76H2.40769V8.112H9.39169V9.984H2.40769V16.104H9.82369V18ZM21.8876 2.52C20.9756 2.52 20.1516 2.68 19.4156 3C18.6796 3.304 18.0556 3.76 17.5436 4.368C17.0316 4.96 16.6396 5.688 16.3676 6.552C16.0956 7.4 15.9596 8.36 15.9596 9.432C15.9596 10.84 16.1756 12.064 16.6076 13.104C17.0556 14.144 17.7116 14.944 18.5756 15.504C19.4556 16.064 20.5516 16.344 21.8636 16.344C22.6156 16.344 23.3276 16.28 23.9996 16.152C24.6716 16.024 25.3276 15.864 25.9676 15.672V17.544C25.3276 17.784 24.6636 17.96 23.9756 18.072C23.3036 18.184 22.4956 18.24 21.5516 18.24C19.8076 18.24 18.3516 17.88 17.1836 17.16C16.0156 16.44 15.1356 15.416 14.5436 14.088C13.9676 12.76 13.6796 11.2 13.6796 9.408C13.6796 8.112 13.8556 6.928 14.2076 5.856C14.5756 4.784 15.1036 3.856 15.7916 3.072C16.4956 2.288 17.3596 1.688 18.3836 1.272C19.4076 0.839999 20.5836 0.623999 21.9116 0.623999C22.7916 0.623999 23.6396 0.711999 24.4556 0.887999C25.2716 1.064 25.9996 1.312 26.6396 1.632L25.7756 3.456C25.2476 3.216 24.6556 3 23.9996 2.808C23.3596 2.616 22.6556 2.52 21.8876 2.52ZM45.1509 9.408C45.1509 10.736 44.9829 11.944 44.6469 13.032C44.3109 14.104 43.8069 15.032 43.1349 15.816C42.4789 16.6 41.6549 17.2 40.6629 17.616C39.6869 18.032 38.5509 18.24 37.2549 18.24C35.9109 18.24 34.7429 18.032 33.7509 17.616C32.7589 17.184 31.9349 16.584 31.2789 15.816C30.6229 15.032 30.1349 14.096 29.8149 13.008C29.4949 11.92 29.3349 10.712 29.3349 9.384C29.3349 7.624 29.6229 6.088 30.1989 4.776C30.7749 3.464 31.6469 2.44 32.8149 1.704C33.9989 0.967999 35.4869 0.599999 37.2789 0.599999C38.9909 0.599999 40.4309 0.967999 41.5989 1.704C42.7669 2.424 43.6469 3.448 44.2389 4.776C44.8469 6.088 45.1509 7.632 45.1509 9.408ZM31.6149 9.408C31.6149 10.848 31.8149 12.088 32.2149 13.128C32.6149 14.168 33.2309 14.968 34.0629 15.528C34.9109 16.088 35.9749 16.368 37.2549 16.368C38.5509 16.368 39.6069 16.088 40.4229 15.528C41.2549 14.968 41.8709 14.168 42.2709 13.128C42.6709 12.088 42.8709 10.848 42.8709 9.408C42.8709 7.248 42.4229 5.56 41.5269 4.344C40.6309 3.112 39.2149 2.496 37.2789 2.496C35.9829 2.496 34.9109 2.776 34.0629 3.336C33.2309 3.88 32.6149 4.672 32.2149 5.712C31.8149 6.736 31.6149 7.968 31.6149 9.408ZM63.6369 9.264C63.6369 11.184 63.2769 12.792 62.5569 14.088C61.8529 15.384 60.8369 16.36 59.5089 17.016C58.1809 17.672 56.5729 18 54.6849 18H49.9089V0.863999H55.1889C56.9169 0.863999 58.4129 1.184 59.6769 1.824C60.9409 2.464 61.9169 3.408 62.6049 4.656C63.2929 5.888 63.6369 7.424 63.6369 9.264ZM61.3569 9.336C61.3569 7.816 61.1009 6.568 60.5889 5.592C60.0929 4.616 59.3569 3.896 58.3809 3.432C57.4209 2.952 56.2529 2.712 54.8769 2.712H52.0689V16.152H54.3969C56.7169 16.152 58.4529 15.584 59.6049 14.448C60.7729 13.296 61.3569 11.592 61.3569 9.336ZM73.2242 18H67.0322V16.752L69.0482 16.296V2.592L67.0322 2.112V0.863999H73.2242V2.112L71.2082 2.592V16.296L73.2242 16.752V18ZM87.213 13.416C87.213 14.44 86.965 15.312 86.469 16.032C85.973 16.736 85.261 17.28 84.333 17.664C83.421 18.048 82.341 18.24 81.093 18.24C80.453 18.24 79.837 18.208 79.245 18.144C78.669 18.08 78.141 17.992 77.661 17.88C77.181 17.752 76.757 17.6 76.389 17.424V15.36C76.965 15.616 77.677 15.848 78.525 16.056C79.389 16.264 80.277 16.368 81.189 16.368C82.037 16.368 82.749 16.256 83.325 16.032C83.901 15.808 84.333 15.488 84.621 15.072C84.909 14.656 85.053 14.168 85.053 13.608C85.053 13.048 84.933 12.576 84.693 12.192C84.453 11.808 84.037 11.456 83.445 11.136C82.869 10.8 82.061 10.448 81.021 10.08C80.285 9.808 79.637 9.52 79.077 9.216C78.533 8.896 78.077 8.536 77.709 8.136C77.341 7.736 77.061 7.28 76.869 6.768C76.693 6.256 76.605 5.664 76.605 4.992C76.605 4.08 76.837 3.304 77.301 2.664C77.765 2.008 78.405 1.504 79.221 1.152C80.053 0.799999 81.005 0.623999 82.077 0.623999C83.021 0.623999 83.885 0.711999 84.669 0.887999C85.453 1.064 86.165 1.296 86.805 1.584L86.133 3.432C85.541 3.176 84.893 2.96 84.189 2.784C83.501 2.608 82.781 2.52 82.029 2.52C81.309 2.52 80.709 2.624 80.229 2.832C79.749 3.04 79.389 3.336 79.149 3.72C78.909 4.088 78.789 4.52 78.789 5.016C78.789 5.592 78.909 6.072 79.149 6.456C79.389 6.84 79.781 7.184 80.325 7.488C80.869 7.792 81.605 8.12 82.533 8.472C83.541 8.84 84.389 9.24 85.077 9.672C85.781 10.088 86.309 10.592 86.661 11.184C87.029 11.776 87.213 12.52 87.213 13.416ZM98.9689 2.52C98.0569 2.52 97.2329 2.68 96.4969 3C95.7609 3.304 95.1369 3.76 94.6249 4.368C94.1129 4.96 93.7209 5.688 93.4489 6.552C93.1769 7.4 93.0409 8.36 93.0409 9.432C93.0409 10.84 93.2569 12.064 93.6889 13.104C94.1369 14.144 94.7929 14.944 95.6569 15.504C96.5369 16.064 97.6329 16.344 98.9449 16.344C99.6969 16.344 100.409 16.28 101.081 16.152C101.753 16.024 102.409 15.864 103.049 15.672V17.544C102.409 17.784 101.745 17.96 101.057 18.072C100.385 18.184 99.5769 18.24 98.6329 18.24C96.8889 18.24 95.4329 17.88 94.2649 17.16C93.0969 16.44 92.2169 15.416 91.6249 14.088C91.0489 12.76 90.7609 11.2 90.7609 9.408C90.7609 8.112 90.9369 6.928 91.2889 5.856C91.6569 4.784 92.1849 3.856 92.8729 3.072C93.5769 2.288 94.4409 1.688 95.4649 1.272C96.4889 0.839999 97.6649 0.623999 98.9929 0.623999C99.8729 0.623999 100.721 0.711999 101.537 0.887999C102.353 1.064 103.081 1.312 103.721 1.632L102.857 3.456C102.329 3.216 101.737 3 101.081 2.808C100.441 2.616 99.7369 2.52 98.9689 2.52ZM107.749 18V0.863999H109.909V16.08H117.397V18H107.749ZM135.778 9.408C135.778 10.736 135.61 11.944 135.274 13.032C134.938 14.104 134.434 15.032 133.762 15.816C133.106 16.6 132.282 17.2 131.29 17.616C130.314 18.032 129.178 18.24 127.882 18.24C126.538 18.24 125.37 18.032 124.378 17.616C123.386 17.184 122.562 16.584 121.906 15.816C121.25 15.032 120.762 14.096 120.442 13.008C120.122 11.92 119.962 10.712 119.962 9.384C119.962 7.624 120.25 6.088 120.826 4.776C121.402 3.464 122.274 2.44 123.442 1.704C124.626 0.967999 126.114 0.599999 127.906 0.599999C129.618 0.599999 131.058 0.967999 132.226 1.704C133.394 2.424 134.274 3.448 134.866 4.776C135.474 6.088 135.778 7.632 135.778 9.408ZM122.242 9.408C122.242 10.848 122.442 12.088 122.842 13.128C123.242 14.168 123.858 14.968 124.69 15.528C125.538 16.088 126.602 16.368 127.882 16.368C129.178 16.368 130.234 16.088 131.05 15.528C131.882 14.968 132.498 14.168 132.898 13.128C133.298 12.088 133.498 10.848 133.498 9.408C133.498 7.248 133.05 5.56 132.154 4.344C131.258 3.112 129.842 2.496 127.906 2.496C126.61 2.496 125.538 2.776 124.69 3.336C123.858 3.88 123.242 4.672 122.842 5.712C122.442 6.736 122.242 7.968 122.242 9.408ZM150.256 13.416C150.256 14.44 150.008 15.312 149.512 16.032C149.016 16.736 148.304 17.28 147.376 17.664C146.464 18.048 145.384 18.24 144.136 18.24C143.496 18.24 142.88 18.208 142.288 18.144C141.712 18.08 141.184 17.992 140.704 17.88C140.224 17.752 139.8 17.6 139.432 17.424V15.36C140.008 15.616 140.72 15.848 141.568 16.056C142.432 16.264 143.32 16.368 144.232 16.368C145.08 16.368 145.792 16.256 146.368 16.032C146.944 15.808 147.376 15.488 147.664 15.072C147.952 14.656 148.096 14.168 148.096 13.608C148.096 13.048 147.976 12.576 147.736 12.192C147.496 11.808 147.08 11.456 146.488 11.136C145.912 10.8 145.104 10.448 144.064 10.08C143.328 9.808 142.68 9.52 142.12 9.216C141.576 8.896 141.12 8.536 140.752 8.136C140.384 7.736 140.104 7.28 139.912 6.768C139.736 6.256 139.648 5.664 139.648 4.992C139.648 4.08 139.88 3.304 140.344 2.664C140.808 2.008 141.448 1.504 142.264 1.152C143.096 0.799999 144.048 0.623999 145.12 0.623999C146.064 0.623999 146.928 0.711999 147.712 0.887999C148.496 1.064 149.208 1.296 149.848 1.584L149.176 3.432C148.584 3.176 147.936 2.96 147.232 2.784C146.544 2.608 145.824 2.52 145.072 2.52C144.352 2.52 143.752 2.624 143.272 2.832C142.792 3.04 142.432 3.336 142.192 3.72C141.952 4.088 141.832 4.52 141.832 5.016C141.832 5.592 141.952 6.072 142.192 6.456C142.432 6.84 142.824 7.184 143.368 7.488C143.912 7.792 144.648 8.12 145.576 8.472C146.584 8.84 147.432 9.24 148.12 9.672C148.824 10.088 149.352 10.592 149.704 11.184C150.072 11.776 150.256 12.52 150.256 13.416ZM167.7 11.952C167.7 13.136 167.46 14.208 166.98 15.168C166.5 16.112 165.764 16.864 164.772 17.424C163.796 17.968 162.548 18.24 161.028 18.24C158.9 18.24 157.276 17.664 156.156 16.512C155.052 15.344 154.5 13.808 154.5 11.904V0.863999H156.66V11.976C156.66 13.368 157.028 14.448 157.764 15.216C158.516 15.984 159.644 16.368 161.148 16.368C162.188 16.368 163.028 16.184 163.668 15.816C164.324 15.432 164.804 14.912 165.108 14.256C165.412 13.584 165.564 12.816 165.564 11.952V0.863999H167.7V11.952ZM177.911 0.863999C179.335 0.863999 180.503 1.048 181.415 1.416C182.343 1.768 183.031 2.304 183.479 3.024C183.927 3.744 184.151 4.648 184.151 5.736C184.151 6.648 183.983 7.408 183.647 8.016C183.311 8.624 182.879 9.112 182.351 9.48C181.839 9.832 181.295 10.112 180.719 10.32L185.423 18H182.903L178.751 10.92H175.343V18H173.183V0.863999H177.911ZM177.791 2.736H175.343V9.096H177.911C178.839 9.096 179.599 8.976 180.191 8.736C180.783 8.48 181.215 8.112 181.487 7.632C181.775 7.152 181.919 6.552 181.919 5.832C181.919 5.08 181.767 4.48 181.463 4.032C181.175 3.584 180.727 3.256 180.119 3.048C179.511 2.84 178.735 2.736 177.791 2.736ZM198.648 18H189.072V0.863999H198.648V2.76H191.232V8.112H198.216V9.984H191.232V16.104H198.648V18Z" fill="#164EC8"/>
</svg>
