<svg width="64" height="64" viewBox="0 0 64 64" fill="none" xmlns="http://www.w3.org/2000/svg">
<path d="M43.6365 11.6363C43.6365 17.381 39.4736 22.1534 33.9998 23.1014V45.1063L42.3574 37.9427C41.322 36.2032 40.7273 34.1708 40.7273 31.9996C40.7273 25.573 45.9371 20.3633 52.3636 20.3633C58.7902 20.3633 64 25.573 64 31.9996C64 38.4261 58.7902 43.6359 52.3636 43.6359C49.552 43.6359 46.9732 42.6387 44.9618 40.9787L33.9998 50.3746V64.0001H29.9998V50.3746L19.0381 40.9788C17.0266 42.6387 14.4479 43.6359 11.6364 43.6359C5.20977 43.6359 0 38.4261 0 31.9996C0 25.573 5.20977 20.3633 11.6364 20.3633C18.0629 20.3633 23.2727 25.573 23.2727 31.9996C23.2727 34.1709 22.678 36.2034 21.6425 37.9429L29.9998 45.1063V23.1013C24.5264 22.1531 20.3638 17.3808 20.3638 11.6363C20.3638 5.20975 25.5735 0 32.0001 0C38.4267 0 43.6365 5.20975 43.6365 11.6363Z" fill="#164EC8"/>
</svg>
